<svg width="267" height="258" viewBox="0 0 267 258" fill="none" xmlns="http://www.w3.org/2000/svg">
<path d="M190.963 214.126L186.544 200.98C186.438 200.645 186.244 200.351 185.986 200.134C185.729 199.916 185.42 199.785 185.096 199.757C184.772 199.728 184.449 199.804 184.165 199.973C183.882 200.143 183.651 200.4 183.501 200.712L177.561 212.266C177.425 212.516 177.237 212.729 177.014 212.887C176.79 213.046 176.535 213.147 176.269 213.183L163.685 214.612C163.377 214.66 163.088 214.8 162.852 215.018C162.615 215.236 162.44 215.522 162.346 215.844C162.252 216.166 162.243 216.511 162.32 216.84C162.397 217.169 162.558 217.468 162.783 217.704L170.714 224.955C170.947 225.165 171.123 225.441 171.222 225.752C171.322 226.063 171.34 226.397 171.276 226.717L169.445 237.548C169.39 237.888 169.425 238.239 169.544 238.56C169.664 238.881 169.864 239.16 170.122 239.364C170.38 239.568 170.685 239.689 171.002 239.714C171.318 239.738 171.635 239.665 171.914 239.502L180.38 234.417C180.674 234.242 181.011 234.168 181.345 234.203C181.68 234.238 181.999 234.381 182.26 234.614L189.613 241.129C189.866 241.345 190.17 241.48 190.488 241.516C190.807 241.552 191.128 241.488 191.413 241.333C191.699 241.178 191.938 240.937 192.101 240.638C192.265 240.34 192.347 239.996 192.337 239.648L191.925 228.689C191.912 228.366 191.976 228.045 192.111 227.758C192.246 227.472 192.447 227.229 192.695 227.053L200.666 221.566C200.933 221.382 201.147 221.119 201.282 220.808C201.417 220.497 201.469 220.149 201.431 219.806C201.393 219.463 201.267 219.137 201.068 218.867C200.869 218.597 200.604 218.392 200.304 218.277L191.962 215.134C191.741 215.049 191.538 214.916 191.366 214.743C191.194 214.57 191.057 214.36 190.963 214.126Z" fill="#ACDEE7"/>
<path opacity="0.5" d="M84.7561 71.2185L69.792 59.403C69.4147 59.1023 68.9614 58.9224 68.4867 58.8848C68.012 58.8472 67.536 58.9537 67.1157 59.1913C66.6955 59.4289 66.3488 59.7876 66.1174 60.2244C65.886 60.6612 65.7796 61.1576 65.8111 61.6538L66.8877 80.3355C66.9115 80.7485 66.84 81.1623 66.6792 81.5419C66.5184 81.9216 66.273 82.256 65.9636 82.5172L51.4929 94.8294C51.1156 95.1503 50.8361 95.5792 50.6888 96.0628C50.5414 96.5464 50.5329 97.0634 50.6643 97.5497C50.7957 98.0361 51.0611 98.4703 51.4278 98.7986C51.7944 99.1269 52.246 99.3348 52.7266 99.3965L67.7652 101.253C68.2024 101.308 68.6167 101.484 68.9654 101.763C69.3141 102.042 69.5845 102.413 69.7486 102.839L75.3242 117.23C75.5049 117.682 75.8046 118.071 76.1891 118.352C76.5735 118.632 77.0269 118.793 77.4968 118.815C77.9668 118.837 78.4341 118.72 78.845 118.477C79.256 118.234 79.5936 117.875 79.8191 117.442L86.5412 104.298C86.7802 103.842 87.1424 103.469 87.5822 103.226C88.022 102.983 88.5198 102.881 89.013 102.932L102.785 104.432C103.258 104.484 103.736 104.392 104.162 104.167C104.588 103.942 104.945 103.595 105.188 103.166C105.431 102.737 105.552 102.244 105.535 101.748C105.518 101.251 105.364 100.771 105.092 100.365L96.6239 87.7628C96.3719 87.397 96.2184 86.9669 96.1791 86.5167C96.1398 86.0665 96.2162 85.6126 96.4004 85.2018L102.248 71.9683C102.446 71.5237 102.519 71.0305 102.46 70.5461C102.401 70.0617 102.211 69.6058 101.913 69.2313C101.615 68.8569 101.22 68.5792 100.776 68.4305C100.331 68.2818 99.8543 68.2682 99.4005 68.3912L86.8605 71.6933C86.4968 71.7824 86.1193 71.786 85.7554 71.7038C85.3914 71.6217 85.05 71.4559 84.7561 71.2185Z" fill="#EFBA1D"/>
<path d="M186.012 81.1448L176.016 56.5679C175.766 55.9456 175.353 55.4133 174.826 55.035C174.299 54.6566 173.68 54.4484 173.044 54.4351C172.408 54.4218 171.782 54.6042 171.241 54.9603C170.699 55.3164 170.266 55.8309 169.993 56.4423L159.604 79.388C159.362 79.9054 159.008 80.3536 158.57 80.6949C158.132 81.0362 157.623 81.2607 157.087 81.3495L132.569 85.7997C131.923 85.9095 131.323 86.2208 130.843 86.694C130.363 87.1672 130.026 87.7811 129.874 88.458C129.722 89.1349 129.762 89.8443 129.989 90.4964C130.217 91.1486 130.621 91.7141 131.151 92.1214L147.51 104.897C147.988 105.261 148.363 105.757 148.594 106.332C148.826 106.907 148.905 107.538 148.823 108.158L146.333 129.178C146.248 129.844 146.344 130.523 146.609 131.133C146.875 131.743 147.3 132.258 147.834 132.619C148.367 132.979 148.987 133.169 149.619 133.166C150.251 133.163 150.869 132.968 151.4 132.602L167.468 121.679C168.028 121.302 168.681 121.112 169.343 121.131C170.005 121.151 170.646 121.38 171.185 121.789L186.246 133.269C186.765 133.63 187.369 133.831 187.99 133.846C188.61 133.862 189.223 133.693 189.759 133.359C190.294 133.024 190.732 132.537 191.021 131.952C191.311 131.368 191.441 130.709 191.398 130.05L189.428 109.242C189.365 108.617 189.457 107.985 189.695 107.408C189.933 106.832 190.309 106.332 190.785 105.958L205.906 94.3076C206.414 93.9207 206.808 93.3889 207.043 92.7738C207.279 92.1587 207.346 91.4854 207.237 90.8318C207.127 90.1783 206.846 89.5711 206.426 89.0807C206.006 88.5902 205.464 88.2367 204.862 88.0607L188.201 83.1796C187.715 83.0387 187.266 82.7823 186.887 82.4299C186.507 82.0775 186.208 81.6381 186.012 81.1448Z" fill="#FFC7A2"/>
</svg>
