<svg width="16" height="17" viewBox="0 0 16 17" fill="none" xmlns="http://www.w3.org/2000/svg">
<path d="M16 3.56653L12.324 0.503972L11.296 1.71946L14.972 4.78203L16 3.56653ZM4.704 1.71549L3.676 0.5L0 3.56256L1.028 4.77805L4.704 1.71549ZM8.4 5.37786H7.2V10.1445L10.996 12.4126L11.6 11.4315L8.4 9.54866V5.37786ZM7.996 2.2001C4.016 2.2001 0.8 5.40169 0.8 9.35005C0.8 13.2984 4.016 16.5 7.996 16.5C11.976 16.5 15.2 13.2984 15.2 9.35005C15.2 5.40169 11.976 2.2001 7.996 2.2001ZM8 14.9111C4.908 14.9111 2.4 12.4206 2.4 9.35005C2.4 6.27954 4.908 3.78898 8 3.78898C11.092 3.78898 13.6 6.27954 13.6 9.35005C13.6 12.4206 11.096 14.9111 8 14.9111Z" fill="#70B9C6"/>
</svg>
